<svg xmlns="http://www.w3.org/2000/svg" width="633" height="253" viewBox="0 0 633 253">
  <defs>
    <linearGradient id="evalml-horizontal-a" x1="0%" x2="100%" y1="50%" y2="50%">
      <stop offset="0%" stop-color="#E3C7FF"/>
      <stop offset="0%" stop-color="#EEDEFD"/>
      <stop offset="100%" stop-color="#E9D0FF"/>
    </linearGradient>
    <linearGradient id="evalml-horizontal-b" x1="-78.507%" x2="73.897%" y1="57.366%" y2="127.832%">
      <stop offset="0%" stop-color="#A961F2"/>
      <stop offset="100%" stop-color="#7B46B0"/>
    </linearGradient>
    <linearGradient id="evalml-horizontal-c" x1="-78.507%" x2="73.897%" y1="59.807%" y2="153.622%">
      <stop offset="0%" stop-color="#A961F2"/>
      <stop offset="100%" stop-color="#7B46B0"/>
    </linearGradient>
    <linearGradient id="evalml-horizontal-d" x1="-78.507%" x2="73.897%" y1="65.033%" y2="208.841%">
      <stop offset="0%" stop-color="#A961F2"/>
      <stop offset="100%" stop-color="#7B46B0"/>
    </linearGradient>
  </defs>
  <g fill="none" fill-rule="evenodd">
    <rect width="633" height="253" fill="#FFF"/>
    <path fill="#252D39" fill-rule="nonzero" d="M359.815,148 L359.815,141.55 L340.585,141.55 L340.585,129.28 L355.735,129.28 L355.735,123.07 L340.585,123.07 L340.585,111.04 L359.815,111.04 L359.815,104.62 L332.455,104.62 L332.455,148 L359.815,148 Z M381.805,148 L394.015,117.22 L388.165,117.22 C387.665,117.22 387.235,117.35 386.875,117.61 C386.515,117.87 386.265,118.2 386.125,118.6 L386.125,118.6 L380.035,135.04 C379.675,136 379.38,136.94 379.15,137.86 C378.92,138.78 378.715,139.7 378.535,140.62 C378.355,139.7 378.15,138.78 377.92,137.86 C377.69,136.94 377.405,136 377.065,135.04 L377.065,135.04 L371.125,118.6 C370.985,118.2 370.73,117.87 370.36,117.61 C369.99,117.35 369.535,117.22 368.995,117.22 L368.995,117.22 L362.845,117.22 L375.085,148 L381.805,148 Z M405.805,148.48 C406.905,148.48 407.905,148.39 408.805,148.21 C409.705,148.03 410.555,147.76 411.355,147.4 C412.155,147.04 412.93,146.595 413.68,146.065 C414.43,145.535 415.195,144.92 415.975,144.22 L415.975,144.22 L416.635,146.41 C416.835,147.05 417.135,147.475 417.535,147.685 C417.935,147.895 418.485,148 419.185,148 L419.185,148 L422.515,148 L422.515,128.56 C422.515,126.82 422.26,125.22 421.75,123.76 C421.24,122.3 420.495,121.045 419.515,119.995 C418.535,118.945 417.34,118.125 415.93,117.535 C414.52,116.945 412.915,116.65 411.115,116.65 C406.115,116.65 401.845,118.27 398.305,121.51 L398.305,121.51 L399.655,123.88 C399.875,124.26 400.165,124.58 400.525,124.84 C400.885,125.1 401.315,125.23 401.815,125.23 C402.415,125.23 402.965,125.09 403.465,124.81 C403.965,124.53 404.51,124.215 405.1,123.865 C405.69,123.515 406.385,123.2 407.185,122.92 C407.985,122.64 408.985,122.5 410.185,122.5 C411.845,122.5 413.11,122.995 413.98,123.985 C414.85,124.975 415.285,126.5 415.285,128.56 L415.285,128.56 L415.285,130.36 C411.785,130.44 408.855,130.78 406.495,131.38 C404.135,131.98 402.245,132.735 400.825,133.645 C399.405,134.555 398.39,135.575 397.78,136.705 C397.17,137.835 396.865,138.98 396.865,140.14 C396.865,141.52 397.085,142.73 397.525,143.77 C397.965,144.81 398.58,145.68 399.37,146.38 C400.16,147.08 401.105,147.605 402.205,147.955 C403.305,148.305 404.505,148.48 405.805,148.48 Z M408.115,143.38 C406.875,143.38 405.87,143.1 405.1,142.54 C404.33,141.98 403.945,141.05 403.945,139.75 C403.945,139.09 404.13,138.48 404.5,137.92 C404.87,137.36 405.495,136.87 406.375,136.45 C407.255,136.03 408.42,135.685 409.87,135.415 C411.32,135.145 413.125,134.96 415.285,134.86 L415.285,134.86 L415.285,140.05 C414.745,140.61 414.21,141.095 413.68,141.505 C413.15,141.915 412.6,142.26 412.03,142.54 C411.46,142.82 410.855,143.03 410.215,143.17 C409.575,143.31 408.875,143.38 408.115,143.38 Z M437.695,148 L437.695,103.42 L430.285,103.42 L430.285,148 L437.695,148 Z M453.595,148 L453.595,119.98 C453.595,119.44 453.58,118.855 453.55,118.225 C453.52,117.595 453.465,116.95 453.385,116.29 L453.385,116.29 L466.675,140.98 C466.975,141.54 467.365,141.975 467.845,142.285 C468.325,142.595 468.885,142.75 469.525,142.75 L469.525,142.75 L470.635,142.75 C471.275,142.75 471.835,142.595 472.315,142.285 C472.795,141.975 473.185,141.54 473.485,140.98 L473.485,140.98 L486.595,116.38 C486.535,117.02 486.49,117.65 486.46,118.27 C486.43,118.89 486.415,119.46 486.415,119.98 L486.415,119.98 L486.415,148 L493.525,148 L493.525,104.62 L487.435,104.62 C487.075,104.62 486.765,104.63 486.505,104.65 C486.245,104.67 486.01,104.72 485.8,104.8 C485.59,104.88 485.4,105.01 485.23,105.19 C485.06,105.37 484.895,105.61 484.735,105.91 L484.735,105.91 L471.895,129.94 C471.555,130.58 471.235,131.25 470.935,131.95 C470.635,132.65 470.345,133.36 470.065,134.08 C469.785,133.38 469.5,132.685 469.21,131.995 C468.92,131.305 468.605,130.64 468.265,130 L468.265,130 L455.305,105.91 C455.145,105.61 454.975,105.37 454.795,105.19 C454.615,105.01 454.42,104.88 454.21,104.8 C454,104.72 453.765,104.67 453.505,104.65 C453.245,104.63 452.935,104.62 452.575,104.62 L452.575,104.62 L446.485,104.62 L446.485,148 L453.595,148 Z M527.725,148 L527.725,141.34 L510.355,141.34 L510.355,104.62 L502.285,104.62 L502.285,148 L527.725,148 Z"/>
    <rect width="249" height="67" x="53" y="29" fill="url(#evalml-horizontal-a)" rx="14"/>
    <path fill="#A960F1" fill-rule="nonzero" d="M123 37C128.522847 37 133 41.4771525 133 47L133 78C133 83.5228475 128.522847 88 123 88L73 88C67.4771525 88 63 83.5228475 63 78L63 47C63 41.4771525 67.4771525 37 73 37L123 37zM123 41L73 41C69.7616031 41 67.1224282 43.5655749 67.0041385 46.7750617L67 47 67 78C67 81.2383969 69.5655749 83.8775718 72.7750617 83.9958615L73 84 123 84C126.238397 84 128.877572 81.4344251 128.995862 78.2249383L129 78 129 47C129 43.7616031 126.434425 41.1224282 123.224938 41.0041385L123 41zM104 167C109.522847 167 114 171.477153 114 177L114 208C114 213.522847 109.522847 218 104 218L73 218C67.4771525 218 63 213.522847 63 208L63 177C63 171.477153 67.4771525 167 73 167L104 167zM104 171L73 171C69.7616031 171 67.1224282 173.565575 67.0041385 176.775062L67 177 67 208C67 211.238397 69.5655749 213.877572 72.7750617 213.995862L73 214 104 214C107.238397 214 109.877572 211.434425 109.995862 208.224938L110 208 110 177C110 173.761603 107.434425 171.122428 104.224938 171.004138L104 171zM183 37C188.522847 37 193 41.4771525 193 47L193 78C193 83.5228475 188.522847 88 183 88L152 88C146.477153 88 142 83.5228475 142 78L142 47C142 41.4771525 146.477153 37 152 37L183 37zM183 41L152 41C148.761603 41 146.122428 43.5655749 146.004138 46.7750617L146 47 146 78C146 81.2383969 148.565575 83.8775718 151.775062 83.9958615L152 84 183 84C186.238397 84 188.877572 81.4344251 188.995862 78.2249383L189 78 189 47C189 43.7616031 186.434425 41.1224282 183.224938 41.0041385L183 41z"/>
    <rect width="90" height="51" x="202" y="37" fill="url(#evalml-horizontal-b)" rx="10"/>
    <path fill="#A960F1" fill-rule="nonzero" d="M161,102 C166.522847,102 171,106.477153 171,112 L171,143 C171,148.522847 166.522847,153 161,153 L73,153 C67.4771525,153 63,148.522847 63,143 L63,112 C63,106.477153 67.4771525,102 73,102 L161,102 Z M161,106 L73,106 C69.7616031,106 67.1224282,108.565575 67.0041385,111.775062 L67,112 L67,143 C67,146.238397 69.5655749,148.877572 72.7750617,148.995862 L73,149 L161,149 C164.238397,149 166.877572,146.434425 166.995862,143.224938 L167,143 L167,112 C167,108.761603 164.434425,106.122428 161.224938,106.004138 L161,106 Z"/>
    <rect width="78" height="51" x="122" y="167" fill="url(#evalml-horizontal-c)" rx="10"/>
    <rect width="63" height="51" x="179" y="102" fill="url(#evalml-horizontal-d)" rx="10"/>
    <path fill="#522F76" d="M39.2640979,55.6081382 L48.5289509,68.6879306 C49.8058715,70.4906421 49.3796338,72.9871773 47.5769223,74.2640979 C46.9010142,74.7428662 46.0931468,75 45.2648529,75 L26.7351471,75 C24.5260081,75 22.7351471,73.209139 22.7351471,71 C22.7351471,70.1717061 22.9922809,69.3638387 23.4710491,68.6879306 L32.7359021,55.6081382 C34.0128227,53.8054267 36.5093579,53.379189 38.3120694,54.6561097 C38.680924,54.9173818 39.0028259,55.2392836 39.2640979,55.6081382 Z" transform="rotate(90 36 63)"/>
  </g>
</svg>
