<?xml version="1.0" encoding="UTF-8"?>
<svg width="1326px" height="253px" viewBox="0 0 1326 253" version="1.1" xmlns="http://www.w3.org/2000/svg" xmlns:xlink="http://www.w3.org/1999/xlink">
    <title>EvalML Horizontal_nav</title>
    <defs>
        <linearGradient x1="0%" y1="50%" x2="100%" y2="50%" id="linearGradient-1">
            <stop stop-color="#E3C7FF" offset="0%"></stop>
            <stop stop-color="#EEDEFD" offset="0%"></stop>
            <stop stop-color="#E9D0FF" offset="100%"></stop>
        </linearGradient>
        <linearGradient x1="-78.5070196%" y1="57.3659411%" x2="73.8972103%" y2="127.831861%" id="linearGradient-2">
            <stop stop-color="#A961F2" offset="0%"></stop>
            <stop stop-color="#7B46B0" offset="100%"></stop>
        </linearGradient>
        <linearGradient x1="-78.5070196%" y1="59.8067263%" x2="73.8972103%" y2="153.6223%" id="linearGradient-3">
            <stop stop-color="#A961F2" offset="0%"></stop>
            <stop stop-color="#7B46B0" offset="100%"></stop>
        </linearGradient>
        <linearGradient x1="-78.5070196%" y1="65.0325329%" x2="73.8972103%" y2="208.840532%" id="linearGradient-4">
            <stop stop-color="#A961F2" offset="0%"></stop>
            <stop stop-color="#7B46B0" offset="100%"></stop>
        </linearGradient>
    </defs>
    <g id="EvalML-Horizontal_nav" stroke="none" stroke-width="1" fill="none" fill-rule="evenodd">
        <path d="M507,217 L507,189.790456 L426.172149,189.790456 L426.172149,138.029046 L489.850877,138.029046 L489.850877,111.83195 L426.172149,111.83195 L426.172149,61.0829876 L507,61.0829876 L507,34 L392,34 L392,217 L507,217 Z M599.684312,216 L651,87 L626.413859,87 C624.31248,87 622.505294,87.5448343 620.9923,88.6345029 C619.479307,89.7241715 618.428617,91.1072125 617.840231,92.7836257 L617.840231,92.7836257 L592.245428,161.684211 C590.732435,165.707602 589.492621,169.647173 588.525987,173.502924 C587.559352,177.358674 586.697786,181.214425 585.94129,185.070175 C585.184793,181.214425 584.323227,177.358674 583.356593,173.502924 C582.389958,169.647173 581.192172,165.707602 579.763234,161.684211 L579.763234,161.684211 L554.798845,92.7836257 C554.210459,91.1072125 553.138755,89.7241715 551.583734,88.6345029 C550.028714,87.5448343 548.116458,87 545.846968,87 L545.846968,87 L520,87 L571.441771,216 L599.684312,216 Z M700.293567,218 C704.882261,218 709.053801,217.62394 712.808187,216.871819 C716.562573,216.119698 720.108382,214.991517 723.445614,213.487276 C726.782846,211.983035 730.015789,210.123626 733.144444,207.909048 C736.273099,205.694471 739.464327,203.124725 742.718129,200.199811 L742.718129,200.199811 L745.471345,209.350613 C746.305653,212.024819 747.557115,213.80066 749.225731,214.678134 C750.894347,215.555608 753.188694,215.994345 756.108772,215.994345 L756.108772,215.994345 L770,215.994345 L770,134.765316 C770,127.494816 768.936257,120.809299 766.808772,114.708765 C764.681287,108.608231 761.573489,103.364279 757.48538,98.9769086 C753.397271,94.5895382 748.412281,91.1632108 742.530409,88.6979265 C736.648538,86.2326422 729.953216,85 722.444444,85 C701.586745,85 683.774269,91.7690858 669.007018,105.307257 L669.007018,105.307257 L674.638596,115.210179 C675.556335,116.797989 676.766082,118.135093 678.267836,119.221489 C679.769591,120.307886 681.563353,120.851084 683.649123,120.851084 C686.152047,120.851084 688.446394,120.266101 690.532164,119.096136 C692.617934,117.92617 694.891423,116.609959 697.352632,115.147502 C699.81384,113.685046 702.71306,112.368834 706.050292,111.198869 C709.387524,110.028904 713.559064,109.443921 718.564912,109.443921 C725.489669,109.443921 730.766667,111.512253 734.395906,115.648916 C738.025146,119.78558 739.839766,126.157713 739.839766,134.765316 L739.839766,134.765316 L739.839766,142.286522 C725.239376,142.620798 713.016764,144.04147 703.17193,146.548539 C693.327096,149.055608 685.442885,152.210336 679.519298,156.012724 C673.595712,159.815112 669.361598,164.077128 666.816959,168.798775 C664.27232,173.520421 663,178.304744 663,183.151744 C663,188.918002 663.917739,193.973924 665.753216,198.31951 C667.588694,202.665096 670.154191,206.300346 673.449708,209.225259 C676.745224,212.150173 680.687329,214.343858 685.276023,215.806315 C689.864717,217.268772 694.870565,218 700.293567,218 Z M709.650794,197 C704.402116,197 700.148148,195.816901 696.888889,193.450704 C693.62963,191.084507 692,187.15493 692,181.661972 C692,178.873239 692.783069,176.295775 694.349206,173.929577 C695.915344,171.56338 698.560847,169.492958 702.285714,167.71831 C706.010582,165.943662 710.941799,164.485915 717.079365,163.34507 C723.216931,162.204225 730.857143,161.422535 740,161 L740,161 L740,182.929577 C737.714286,185.295775 735.449735,187.34507 733.206349,189.077465 C730.962963,190.809859 728.634921,192.267606 726.222222,193.450704 C723.809524,194.633803 721.248677,195.521127 718.539683,196.112676 C715.830688,196.704225 712.867725,197 709.650794,197 Z M833,215 L833,29 L802,29 L802,215 L833,215 Z M900.776148,217 L900.776148,98.7966805 C900.776148,96.5186722 900.713329,94.0508299 900.587691,91.3931535 C900.462054,88.7354772 900.231718,86.0145228 899.896684,83.2302905 L899.896684,83.2302905 L955.554209,187.385892 C956.810587,189.748271 958.443878,191.583333 960.454082,192.891079 C962.464286,194.198824 964.809524,194.852697 967.489796,194.852697 L967.489796,194.852697 L972.138393,194.852697 C974.818665,194.852697 977.163903,194.198824 979.174107,192.891079 C981.184311,191.583333 982.817602,189.748271 984.07398,187.385892 L984.07398,187.385892 L1038.97768,83.6099585 C1038.7264,86.3098202 1038.53795,88.9674965 1038.41231,91.5829876 C1038.28667,94.1984786 1038.22385,96.6030429 1038.22385,98.7966805 L1038.22385,98.7966805 L1038.22385,217 L1068,217 L1068,34 L1042.49554,34 C1040.98788,34 1039.68963,34.0421853 1038.60077,34.126556 C1037.5119,34.2109267 1036.52774,34.4218534 1035.64828,34.7593361 C1034.76881,35.0968188 1033.97311,35.6452282 1033.26116,36.4045643 C1032.54921,37.1639004 1031.85821,38.1763485 1031.18814,39.4419087 L1031.18814,39.4419087 L977.415179,140.813278 C975.991284,143.51314 974.651148,146.339557 973.39477,149.292531 C972.138393,152.245505 970.923895,155.240664 969.751276,158.278008 C968.578656,155.325035 967.385098,152.393154 966.170599,149.482365 C964.956101,146.571577 963.636905,143.766252 962.21301,141.06639 L962.21301,141.06639 L907.9375,39.4419087 C907.267432,38.1763485 906.555485,37.1639004 905.801658,36.4045643 C905.047832,35.6452282 904.231186,35.0968188 903.351722,34.7593361 C902.472258,34.4218534 901.488095,34.2109267 900.399235,34.126556 C899.310374,34.0421853 898.012117,34 896.504464,34 L896.504464,34 L871,34 L871,217 L900.776148,217 Z M1211,217 L1211,188.904564 L1138.625,188.904564 L1138.625,34 L1105,34 L1105,217 L1211,217 Z" id="EvalML" fill="#252D39" fill-rule="nonzero"></path>
        <rect id="Rectangle-Copy-28" fill="url(#linearGradient-1)" x="53" y="29" width="249" height="67" rx="14"></rect>
        <path d="M123,37 C128.522847,37 133,41.4771525 133,47 L133,78 C133,83.5228475 128.522847,88 123,88 L73,88 C67.4771525,88 63,83.5228475 63,78 L63,47 C63,41.4771525 67.4771525,37 73,37 L123,37 Z M123,41 L73,41 C69.7616031,41 67.1224282,43.5655749 67.0041385,46.7750617 L67,47 L67,78 C67,81.2383969 69.5655749,83.8775718 72.7750617,83.9958615 L73,84 L123,84 C126.238397,84 128.877572,81.4344251 128.995862,78.2249383 L129,78 L129,47 C129,43.7616031 126.434425,41.1224282 123.224938,41.0041385 L123,41 Z" id="Rectangle-Copy-29" fill="#A960F1" fill-rule="nonzero"></path>
        <path d="M104,167 C109.522847,167 114,171.477153 114,177 L114,208 C114,213.522847 109.522847,218 104,218 L73,218 C67.4771525,218 63,213.522847 63,208 L63,177 C63,171.477153 67.4771525,167 73,167 L104,167 Z M104,171 L73,171 C69.7616031,171 67.1224282,173.565575 67.0041385,176.775062 L67,177 L67,208 C67,211.238397 69.5655749,213.877572 72.7750617,213.995862 L73,214 L104,214 C107.238397,214 109.877572,211.434425 109.995862,208.224938 L110,208 L110,177 C110,173.761603 107.434425,171.122428 104.224938,171.004138 L104,171 Z" id="Rectangle-Copy-30" fill="#A960F1" fill-rule="nonzero"></path>
        <path d="M183,37 C188.522847,37 193,41.4771525 193,47 L193,78 C193,83.5228475 188.522847,88 183,88 L152,88 C146.477153,88 142,83.5228475 142,78 L142,47 C142,41.4771525 146.477153,37 152,37 L183,37 Z M183,41 L152,41 C148.761603,41 146.122428,43.5655749 146.004138,46.7750617 L146,47 L146,78 C146,81.2383969 148.565575,83.8775718 151.775062,83.9958615 L152,84 L183,84 C186.238397,84 188.877572,81.4344251 188.995862,78.2249383 L189,78 L189,47 C189,43.7616031 186.434425,41.1224282 183.224938,41.0041385 L183,41 Z" id="Rectangle-Copy-31" fill="#A960F1" fill-rule="nonzero"></path>
        <rect id="Rectangle-Copy-50" fill="url(#linearGradient-2)" x="202" y="37" width="90" height="51" rx="10"></rect>
        <path d="M161,102 C166.522847,102 171,106.477153 171,112 L171,143 C171,148.522847 166.522847,153 161,153 L73,153 C67.4771525,153 63,148.522847 63,143 L63,112 C63,106.477153 67.4771525,102 73,102 L161,102 Z M161,106 L73,106 C69.7616031,106 67.1224282,108.565575 67.0041385,111.775062 L67,112 L67,143 C67,146.238397 69.5655749,148.877572 72.7750617,148.995862 L73,149 L161,149 C164.238397,149 166.877572,146.434425 166.995862,143.224938 L167,143 L167,112 C167,108.761603 164.434425,106.122428 161.224938,106.004138 L161,106 Z" id="Rectangle-Copy-46" fill="#A960F1" fill-rule="nonzero"></path>
        <rect id="Rectangle-Copy-47" fill="url(#linearGradient-3)" x="122" y="167" width="78" height="51" rx="10"></rect>
        <rect id="Rectangle-Copy-51" fill="url(#linearGradient-4)" x="179" y="102" width="63" height="51" rx="10"></rect>
        <path d="M39.2640979,55.6081382 L48.5289509,68.6879306 C49.8058715,70.4906421 49.3796338,72.9871773 47.5769223,74.2640979 C46.9010142,74.7428662 46.0931468,75 45.2648529,75 L26.7351471,75 C24.5260081,75 22.7351471,73.209139 22.7351471,71 C22.7351471,70.1717061 22.9922809,69.3638387 23.4710491,68.6879306 L32.7359021,55.6081382 C34.0128227,53.8054267 36.5093579,53.379189 38.3120694,54.6561097 C38.680924,54.9173818 39.0028259,55.2392836 39.2640979,55.6081382 Z" id="Triangle-Copy-5" fill="#522F76" transform="translate(36.000000, 63.000000) scale(-1, -1) rotate(-90.000000) translate(-36.000000, -63.000000) "></path>
    </g>
</svg>