<?xml version="1.0" encoding="UTF-8"?>
<svg width="1089px" height="253px" viewBox="0 0 1089 253" version="1.1" xmlns="http://www.w3.org/2000/svg" xmlns:xlink="http://www.w3.org/1999/xlink">
    <title>EvalML Horizontal_nav_2</title>
    <defs>
        <linearGradient x1="0%" y1="50%" x2="100%" y2="50%" id="linearGradient-1">
            <stop stop-color="#E3C7FF" offset="0%"></stop>
            <stop stop-color="#EEDEFD" offset="0%"></stop>
            <stop stop-color="#E9D0FF" offset="100%"></stop>
        </linearGradient>
        <linearGradient x1="-78.5070196%" y1="57.3659411%" x2="73.8972103%" y2="127.831861%" id="linearGradient-2">
            <stop stop-color="#A961F2" offset="0%"></stop>
            <stop stop-color="#7B46B0" offset="100%"></stop>
        </linearGradient>
        <linearGradient x1="-78.5070196%" y1="59.8067263%" x2="73.8972103%" y2="153.6223%" id="linearGradient-3">
            <stop stop-color="#A961F2" offset="0%"></stop>
            <stop stop-color="#7B46B0" offset="100%"></stop>
        </linearGradient>
        <linearGradient x1="-78.5070196%" y1="65.0325329%" x2="73.8972103%" y2="208.840532%" id="linearGradient-4">
            <stop stop-color="#A961F2" offset="0%"></stop>
            <stop stop-color="#7B46B0" offset="100%"></stop>
        </linearGradient>
    </defs>
    <g id="EvalML-Horizontal_nav_2" stroke="none" stroke-width="1" fill="none" fill-rule="evenodd">
        <path d="M460,193 L460,172.7787 L399.554825,172.7787 L399.554825,134.311203 L447.175439,134.311203 L447.175439,114.842324 L399.554825,114.842324 L399.554825,77.1272476 L460,77.1272476 L460,57 L374,57 L374,193 L460,193 Z M530.002887,193 L568,97 L549.794995,97 C548.239012,97 546.900866,97.4054581 545.780558,98.2163743 C544.66025,99.0272904 543.882259,100.05653 543.446583,101.304094 L543.446583,101.304094 L524.494706,152.578947 C523.374398,155.573099 522.456368,158.504873 521.740616,161.374269 C521.024864,164.243665 520.38691,167.11306 519.826756,169.982456 C519.266603,167.11306 518.628649,164.243665 517.912897,161.374269 C517.197145,158.504873 516.310234,155.573099 515.252166,152.578947 L515.252166,152.578947 L496.767084,101.304094 C496.331408,100.05653 495.537857,99.0272904 494.386429,98.2163743 C493.235002,97.4054581 491.819057,97 490.138595,97 L490.138595,97 L471,97 L509.090472,193 L530.002887,193 Z M604.534503,194 C607.922417,194 611.002339,193.720075 613.774269,193.160226 C616.546199,192.600377 619.164133,191.760603 621.62807,190.640905 C624.092008,189.521206 626.478947,188.137135 628.788889,186.48869 C631.09883,184.840245 633.454971,182.927427 635.85731,180.750236 L635.85731,180.750236 L637.890058,187.561734 C638.506043,189.552309 639.430019,190.874175 640.661988,191.527333 C641.893957,192.18049 643.587914,192.507069 645.74386,192.507069 L645.74386,192.507069 L656,192.507069 L656,132.043355 C656,126.63148 655.21462,121.655042 653.64386,117.114043 C652.073099,112.573044 649.778558,108.669651 646.760234,105.403864 C643.74191,102.138077 640.061404,99.5876532 635.718713,97.7525919 C631.376023,95.9175306 626.432749,95 620.888889,95 C605.489279,95 592.338012,100.038643 581.435088,110.115928 L581.435088,110.115928 L585.592982,117.487276 C586.270565,118.66918 587.163743,119.664467 588.272515,120.473139 C589.381287,121.28181 590.705653,121.686145 592.245614,121.686145 C594.093567,121.686145 595.787524,121.250707 597.327485,120.37983 C598.867446,119.508954 600.546004,118.529218 602.363158,117.440622 C604.180312,116.352026 606.320858,115.37229 608.784795,114.501414 C611.248733,113.630537 614.328655,113.195099 618.024561,113.195099 C623.137232,113.195099 627.033333,114.734684 629.712865,117.813855 C632.392398,120.893025 633.732164,125.636192 633.732164,132.043355 L633.732164,132.043355 L633.732164,137.641847 C622.952437,137.890669 613.928265,138.948162 606.659649,140.814326 C599.391033,142.68049 593.569981,145.028746 589.196491,147.859095 C584.823002,150.689444 581.696881,153.861923 579.818129,157.376532 C577.939376,160.89114 577,164.452403 577,168.06032 C577,172.352498 577.677583,176.115928 579.032749,179.350613 C580.387914,182.585297 582.282066,185.291235 584.715205,187.468426 C587.148343,189.645617 590.058869,191.278511 593.446784,192.367107 C596.834698,193.455702 600.530604,194 604.534503,194 Z M611.60582,178 C607.559965,178 604.280864,177.14554 601.768519,175.43662 C599.256173,173.7277 598,170.889671 598,166.922535 C598,164.908451 598.603616,163.046948 599.810847,161.338028 C601.018078,159.629108 603.057319,158.133803 605.928571,156.852113 C608.799824,155.570423 612.60097,154.517606 617.332011,153.693662 C622.063051,152.869718 627.952381,152.305164 635,152 L635,152 L635,167.838028 C633.238095,169.546948 631.492504,171.026995 629.763228,172.278169 C628.033951,173.529343 626.239418,174.58216 624.37963,175.43662 C622.519841,176.29108 620.545855,176.931925 618.457672,177.359155 C616.369489,177.786385 614.085538,178 611.60582,178 Z M704,192 L704,53 L681,53 L681,192 L704,192 Z M754.21875,193 L754.21875,105.15491 C754.21875,103.461964 754.171875,101.627939 754.078125,99.6528354 C753.984375,97.6777317 753.8125,95.6556017 753.5625,93.5864454 L753.5625,93.5864454 L795.09375,170.991701 C796.03125,172.747349 797.25,174.111111 798.75,175.082988 C800.25,176.054864 802,176.540802 804,176.540802 L804,176.540802 L807.46875,176.540802 C809.46875,176.540802 811.21875,176.054864 812.71875,175.082988 C814.21875,174.111111 815.4375,172.747349 816.375,170.991701 L816.375,170.991701 L857.34375,93.868603 C857.15625,95.8750576 857.015625,97.8501614 856.921875,99.7939142 C856.828125,101.737667 856.78125,103.524666 856.78125,105.15491 L856.78125,105.15491 L856.78125,193 L879,193 L879,57 L859.96875,57 C858.84375,57 857.875,57.0313509 857.0625,57.0940526 C856.25,57.1567543 855.515625,57.3135085 854.859375,57.5643154 C854.203125,57.8151222 853.609375,58.2226833 853.078125,58.7869986 C852.546875,59.351314 852.03125,60.1037344 851.53125,61.04426 L851.53125,61.04426 L811.40625,136.38036 C810.34375,138.386814 809.34375,140.487321 808.40625,142.681881 C807.46875,144.876441 806.5625,147.102351 805.6875,149.359613 C804.8125,147.165053 803.921875,144.986169 803.015625,142.82296 C802.109375,140.659751 801.125,138.574919 800.0625,136.568465 L800.0625,136.568465 L759.5625,61.04426 C759.0625,60.1037344 758.53125,59.351314 757.96875,58.7869986 C757.40625,58.2226833 756.796875,57.8151222 756.140625,57.5643154 C755.484375,57.3135085 754.75,57.1567543 753.9375,57.0940526 C753.125,57.0313509 752.15625,57 751.03125,57 L751.03125,57 L732,57 L732,193 L754.21875,193 Z M986,193 L986,172.120332 L932.060142,172.120332 L932.060142,57 L907,57 L907,193 L986,193 Z" id="EvalML" fill="#252D39" fill-rule="nonzero"></path>
        <rect id="Rectangle-Copy-28" fill="url(#linearGradient-1)" x="53" y="29" width="249" height="67" rx="14"></rect>
        <path d="M123,37 C128.522847,37 133,41.4771525 133,47 L133,78 C133,83.5228475 128.522847,88 123,88 L73,88 C67.4771525,88 63,83.5228475 63,78 L63,47 C63,41.4771525 67.4771525,37 73,37 L123,37 Z M123,41 L73,41 C69.7616031,41 67.1224282,43.5655749 67.0041385,46.7750617 L67,47 L67,78 C67,81.2383969 69.5655749,83.8775718 72.7750617,83.9958615 L73,84 L123,84 C126.238397,84 128.877572,81.4344251 128.995862,78.2249383 L129,78 L129,47 C129,43.7616031 126.434425,41.1224282 123.224938,41.0041385 L123,41 Z" id="Rectangle-Copy-29" fill="#A960F1" fill-rule="nonzero"></path>
        <path d="M104,167 C109.522847,167 114,171.477153 114,177 L114,208 C114,213.522847 109.522847,218 104,218 L73,218 C67.4771525,218 63,213.522847 63,208 L63,177 C63,171.477153 67.4771525,167 73,167 L104,167 Z M104,171 L73,171 C69.7616031,171 67.1224282,173.565575 67.0041385,176.775062 L67,177 L67,208 C67,211.238397 69.5655749,213.877572 72.7750617,213.995862 L73,214 L104,214 C107.238397,214 109.877572,211.434425 109.995862,208.224938 L110,208 L110,177 C110,173.761603 107.434425,171.122428 104.224938,171.004138 L104,171 Z" id="Rectangle-Copy-30" fill="#A960F1" fill-rule="nonzero"></path>
        <path d="M183,37 C188.522847,37 193,41.4771525 193,47 L193,78 C193,83.5228475 188.522847,88 183,88 L152,88 C146.477153,88 142,83.5228475 142,78 L142,47 C142,41.4771525 146.477153,37 152,37 L183,37 Z M183,41 L152,41 C148.761603,41 146.122428,43.5655749 146.004138,46.7750617 L146,47 L146,78 C146,81.2383969 148.565575,83.8775718 151.775062,83.9958615 L152,84 L183,84 C186.238397,84 188.877572,81.4344251 188.995862,78.2249383 L189,78 L189,47 C189,43.7616031 186.434425,41.1224282 183.224938,41.0041385 L183,41 Z" id="Rectangle-Copy-31" fill="#A960F1" fill-rule="nonzero"></path>
        <rect id="Rectangle-Copy-50" fill="url(#linearGradient-2)" x="202" y="37" width="90" height="51" rx="10"></rect>
        <path d="M161,102 C166.522847,102 171,106.477153 171,112 L171,143 C171,148.522847 166.522847,153 161,153 L73,153 C67.4771525,153 63,148.522847 63,143 L63,112 C63,106.477153 67.4771525,102 73,102 L161,102 Z M161,106 L73,106 C69.7616031,106 67.1224282,108.565575 67.0041385,111.775062 L67,112 L67,143 C67,146.238397 69.5655749,148.877572 72.7750617,148.995862 L73,149 L161,149 C164.238397,149 166.877572,146.434425 166.995862,143.224938 L167,143 L167,112 C167,108.761603 164.434425,106.122428 161.224938,106.004138 L161,106 Z" id="Rectangle-Copy-46" fill="#A960F1" fill-rule="nonzero"></path>
        <rect id="Rectangle-Copy-47" fill="url(#linearGradient-3)" x="122" y="167" width="78" height="51" rx="10"></rect>
        <rect id="Rectangle-Copy-51" fill="url(#linearGradient-4)" x="179" y="102" width="63" height="51" rx="10"></rect>
        <path d="M39.2640979,55.6081382 L48.5289509,68.6879306 C49.8058715,70.4906421 49.3796338,72.9871773 47.5769223,74.2640979 C46.9010142,74.7428662 46.0931468,75 45.2648529,75 L26.7351471,75 C24.5260081,75 22.7351471,73.209139 22.7351471,71 C22.7351471,70.1717061 22.9922809,69.3638387 23.4710491,68.6879306 L32.7359021,55.6081382 C34.0128227,53.8054267 36.5093579,53.379189 38.3120694,54.6561097 C38.680924,54.9173818 39.0028259,55.2392836 39.2640979,55.6081382 Z" id="Triangle-Copy-5" fill="#522F76" transform="translate(36.000000, 63.000000) scale(-1, -1) rotate(-90.000000) translate(-36.000000, -63.000000) "></path>
    </g>
</svg>